<?xml version="1.0" encoding="utf-8"?>
<svg width="16px" height="16px" viewBox="0 0 16 16" version="1.1" xmlns:xlink="http://www.w3.org/1999/xlink" xmlns="http://www.w3.org/2000/svg">
  <g id="logo2">
    <path d="M14 0C15.1047 0 16 0.89528 16 2L16 14C16 15.1047 15.1047 16 14 16L2 16C0.89528 16 0 15.1047 0 14L0 2C0 0.89528 0.89528 0 2 0L14 0Z" id="Rectangle" fill="#D8EFFD" fill-opacity="0" stroke="none" />
    <path d="M1.91111 14.28C1.3037 13.64 0.833333 12.9233 0.5 12.13C0.166667 11.3367 0 10.4933 0 9.6C0 7.6 0.777778 5.9 2.33333 4.5C3.88889 3.1 5.77778 2.4 8 2.4L8.17778 2.4L6.75556 1.12L8 0L11.5556 3.2L8 6.4L6.73333 5.26L8.13333 4L8 4C6.28148 4 4.81481 4.54667 3.6 5.64C2.38519 6.73333 1.77778 8.05333 1.77778 9.6C1.77778 10.28 1.9 10.92 2.14444 11.52C2.38889 12.12 2.73333 12.66 3.17778 13.14L1.91111 14.28L1.91111 14.28ZM7.11111 14C7.11111 13.6933 6.9963 13.39 6.76667 13.09C6.53704 12.79 6.28148 12.4767 6 12.15C5.71852 11.8233 5.46296 11.4833 5.23333 11.13C5.0037 10.7767 4.88889 10.4 4.88889 10C4.88889 9.22667 5.19259 8.56667 5.8 8.02C6.40741 7.47333 7.14074 7.2 8 7.2C8.85926 7.2 9.59259 7.47333 10.2 8.02C10.8074 8.56667 11.1111 9.22667 11.1111 10C11.1111 10.4 10.9963 10.7767 10.7667 11.13C10.537 11.4833 10.2815 11.8233 10 12.15C9.71852 12.4767 9.46296 12.79 9.23333 13.09C9.0037 13.39 8.88889 13.6933 8.88889 14L7.11111 14L7.11111 14ZM7.11111 16L7.11111 14.8L8.88889 14.8L8.88889 16L7.11111 16L7.11111 16ZM14.0889 14.28L12.8222 13.14C13.2667 12.66 13.6111 12.12 13.8556 11.52C14.1 10.92 14.2222 10.28 14.2222 9.6C14.2222 8.72 14.0185 7.90333 13.6111 7.15C13.2037 6.39667 12.6444 5.76667 11.9333 5.26L13.2 4.12C14.0593 4.78667 14.7407 5.59 15.2444 6.53C15.7481 7.47 16 8.49333 16 9.6C16 10.4933 15.8333 11.3367 15.5 12.13C15.1667 12.9233 14.6963 13.64 14.0889 14.28L14.0889 14.28Z" id="Shape" fill="#F8C822" fill-rule="evenodd" stroke="none" />
  </g>
</svg>