<?xml version="1.0" encoding="utf-8"?>
<svg width="24px" height="24px" viewBox="0 0 24 24" version="1.1" xmlns:xlink="http://www.w3.org/1999/xlink" xmlns="http://www.w3.org/2000/svg">
  <g id="logo-2">
    <path d="M0 12C0 5.37258 5.37258 0 12 0C18.6274 0 24 5.37258 24 12C24 18.6274 18.6274 24 12 24C5.37258 24 0 18.6274 0 12Z" id="Oval" fill="#1976D2" fill-rule="evenodd" stroke="none" />
    <g id="note-line" transform="translate(2.600006 7.799988)">
      <path d="M9.48235 8.56471C9.98922 8.56471 10.4 8.97549 10.4 9.48236L10.4 9.48236C10.4 9.98923 9.98922 10.4 9.48235 10.4L0.917645 10.4C0.410775 10.4 0 9.98923 0 9.48236L0 9.48236C0 8.97549 0.410775 8.56471 0.917645 8.56471L9.48235 8.56471Z" id="Rectangle" fill="#FFFFFF" stroke="none" />
      <path d="M16.4157 4.28231C16.9226 4.28231 17.3333 4.69308 17.3333 5.19995L17.3333 5.19995C17.3333 5.70682 16.9226 6.1176 16.4157 6.1176L0.917646 6.1176C0.410775 6.1176 0 5.70682 0 5.19995L0 5.19995C0 4.69308 0.410775 4.28231 0.917646 4.28231L16.4157 4.28231Z" id="Rectangle" fill="#FFFFFF" stroke="none" />
      <path d="M19.8824 0C20.3892 0 20.8 0.410775 20.8 0.917646L20.8 0.917646C20.8 1.42452 20.3892 1.83529 19.8824 1.83529L0.917646 1.83529C0.410775 1.83529 0 1.42452 0 0.917646L0 0.917646C0 0.410775 0.410775 0 0.917646 0L19.8824 0Z" id="Rectangle" fill="#FFFFFF" stroke="none" />
    </g>
  </g>
</svg>